<svg width="18" height="18" xmlns="http://www.w3.org/2000/svg">
 <title/>
 <desc/>

 <g>
  <title>background</title>
  <rect fill="none" id="canvas_background" height="402" width="582" y="-1" x="-1"/>
 </g>
 <g>
  <title>Layer 1</title>
  <path fill="#ffffff" id="Shape" d="m16,0l-14,0c-1.1,0 -2,0.9 -2,2l0,14c0,1.1 0.9,2 2,2l14,0c1.1,0 2,-0.9 2,-2l0,-14c0,-1.1 -0.9,-2 -2,-2l0,0zm-10,14l-2,0l0,-2l2,0l0,2l0,0zm0,-4l-2,0l0,-2l2,0l0,2l0,0zm0,-4l-2,0l0,-2l2,0l0,2l0,0zm8,8l-7,0l0,-2l7,0l0,2l0,0zm0,-4l-7,0l0,-2l7,0l0,2l0,0zm0,-4l-7,0l0,-2l7,0l0,2l0,0z"/>
 </g>
</svg>