<svg width="30" height="30" xmlns="http://www.w3.org/2000/svg">

 <g>
  <title>background</title>
  <rect fill="none" id="canvas_background" height="402" width="582" y="-1" x="-1"/>
 </g>
 <g>
  <title>Layer 1</title>
  <path fill="#ffffff" id="svg_1" d="m26.206,12.559l-2.058,-5.88c-0.561,-1.602 -2.079,-2.679 -3.777,-2.679l-10.742,0c-1.698,0 -3.216,1.077 -3.776,2.678l-2.058,5.88c-1.099,0.723 -1.795,1.972 -1.795,3.346l0,7.096c0,1.105 0.895,2 2,2s2,-0.895 2,-2l0,-1.261c0,0 5.281,0.261 9,0.261s9,-0.261 9,-0.261l0,1.261c0,1.105 0.895,2 2,2s2,-0.895 2,-2l0,-7.096c0,-1.374 -0.697,-2.623 -1.794,-3.345zm-19.611,-1.946l1.146,-3.274c0.281,-0.802 1.038,-1.339 1.888,-1.339l10.742,0c0.85,0 1.607,0.537 1.888,1.339l1.146,3.274c0.18,0.515 -0.249,1.034 -0.788,0.947c-1.961,-0.317 -4.482,-0.56 -7.617,-0.56c-3.135,0 -5.656,0.243 -7.617,0.56c-0.539,0.087 -0.968,-0.432 -0.788,-0.947zm-0.095,7.387c-0.828,0 -1.5,-0.672 -1.5,-1.5s0.672,-1.5 1.5,-1.5s1.5,0.672 1.5,1.5s-0.672,1.5 -1.5,1.5zm11.5,-1l-6,0c-0.552,0 -1,-0.448 -1,-1c0,-0.552 0.448,-1 1,-1l6,0c0.552,0 1,0.448 1,1c0,0.552 -0.448,1 -1,1zm5.5,1c-0.828,0 -1.5,-0.672 -1.5,-1.5s0.672,-1.5 1.5,-1.5s1.5,0.672 1.5,1.5s-0.672,1.5 -1.5,1.5z"/>
  <rect stroke="null" id="svg_6" height="2.363634" width="4.54545" y="2.065353" x="9.659096" fill-opacity="null" stroke-opacity="null" stroke-width="null" fill="#ffffff"/>
  <rect id="svg_7" height="0" width="0.045455" y="4.974441" x="20.113632" fill-opacity="null" stroke-opacity="null" stroke-width="null" stroke="null" fill="#ffffff"/>
 </g>
</svg>